<svg width="66" height="66" viewBox="0 0 66 66" fill="none" xmlns="http://www.w3.org/2000/svg">
<g clip-path="url(#clip0_1_12)">
<path d="M64.055 45.189C64.8952 45.189 65.3153 45.6092 65.3153 46.4494V50.2305C65.3153 51.2388 64.9372 52.1211 64.181 52.8773C63.4248 53.6335 62.5425 54.0116 61.5342 54.0116H57.7531V61.8259C57.7531 62.8342 57.375 63.7165 56.6188 64.4727C55.8626 65.2289 54.9803 65.6071 53.972 65.6071H38.9736C37.8812 65.6071 36.978 65.2289 36.2638 64.4727C35.5496 63.7165 35.1925 62.8342 35.1925 61.8259V54.0116H4.56542C3.55712 54.0116 2.67486 53.6335 1.91864 52.8773C1.16241 52.1211 0.784302 51.2388 0.784302 50.2305V46.4494C0.784302 45.6092 1.20443 45.189 2.04467 45.189H3.30505V4.85713C3.30505 3.84883 3.68316 2.96657 4.43938 2.21035C5.1956 1.45412 6.07786 1.07601 7.08616 1.07601H59.0135C60.0218 1.07601 60.904 1.45412 61.6603 2.21035C62.4165 2.96657 62.7946 3.84883 62.7946 4.85713V45.189H64.055ZM57.7531 45.189H60.2739V42.6683H57.7531V45.189ZM7.08616 3.59676C6.24591 3.59676 5.82579 4.01688 5.82579 4.85713V6.1175H60.2739V4.85713C60.2739 4.01688 59.8537 3.59676 59.0135 3.59676H7.08616ZM5.82579 42.6683V45.189H25.4876C26.3278 45.189 26.748 45.6092 26.748 46.4494H35.1925V42.6683H18.4295C17.5893 42.6683 17.1691 42.2482 17.1691 41.4079C17.1691 40.5677 17.5893 40.1475 18.4295 40.1475H35.1925V31.577C35.1925 30.9888 35.3185 30.4427 35.5706 29.9385L30.151 24.5189V26.5355C30.151 27.3758 29.7308 27.7959 28.8906 27.7959C28.0503 27.7959 27.6302 27.3758 27.6302 26.5355V21.494C27.6302 20.6538 28.0503 20.2337 28.8906 20.2337H33.9321C34.7723 20.2337 35.1925 20.6538 35.1925 21.494C35.1925 22.3343 34.7723 22.7544 33.9321 22.7544H31.9155L37.3351 28.174C37.8392 27.9219 38.3854 27.7959 38.9736 27.7959H53.972C54.9803 27.7959 55.8626 28.174 56.6188 28.9302C57.375 29.6865 57.7531 30.5687 57.7531 31.577V40.1475H60.2739V8.63824H5.82579V40.1475H7.08616C7.92641 40.1475 8.34653 40.5677 8.34653 41.4079C8.34653 42.2482 7.92641 42.6683 7.08616 42.6683H5.82579ZM4.56542 51.4909H35.1925V48.9701H26.748C25.7397 48.9701 25.0255 48.55 24.6053 47.7098H3.30505V50.2305C3.30505 51.0708 3.72517 51.4909 4.56542 51.4909ZM55.2324 61.8259V31.577C55.2324 30.7368 54.8122 30.3166 53.972 30.3166H39.4777L45.2754 36.1144V34.0978C45.2754 33.2575 45.6956 32.8374 46.5358 32.8374C47.3761 32.8374 47.7962 33.2575 47.7962 34.0978V39.1392C47.7962 39.9795 47.3761 40.3996 46.5358 40.3996H41.4943C40.6541 40.3996 40.2339 39.9795 40.2339 39.1392C40.2339 38.299 40.6541 37.8789 41.4943 37.8789H43.5109L37.7132 32.0812V61.8259C37.7132 62.6662 38.1333 63.0863 38.9736 63.0863H53.972C54.8122 63.0863 55.2324 62.6662 55.2324 61.8259ZM62.7946 50.2305V47.7098H57.7531V51.4909H61.5342C62.3745 51.4909 62.7946 51.0708 62.7946 50.2305ZM45.1494 60.5656C45.1494 60.5656 45.1494 60.3555 45.1494 59.9354C45.1494 59.5153 45.5695 59.3052 46.4098 59.3052C47.25 59.3052 47.6701 59.7253 47.6701 60.5656C47.6701 61.4058 47.25 61.8259 46.4098 61.8259C45.5695 61.8259 45.1494 61.4058 45.1494 60.5656ZM49.5607 13.6797C48.7204 13.6797 48.3003 13.2596 48.3003 12.4194C48.3003 11.5791 48.7204 11.159 49.5607 11.159H56.4927C57.333 11.159 57.7531 11.5791 57.7531 12.4194C57.7531 13.2596 57.333 13.6797 56.4927 13.6797H49.5607ZM45.1494 12.4194C45.1494 12.4194 45.1494 12.6294 45.1494 13.0495C45.1494 13.4697 44.7293 13.6797 43.889 13.6797C43.0488 13.6797 42.6287 13.2596 42.6287 12.4194C42.6287 11.5791 43.0488 11.159 43.889 11.159C44.7293 11.159 45.1494 11.5791 45.1494 12.4194ZM11.4975 41.4079C11.4975 41.4079 11.4975 41.1979 11.4975 40.7777C11.4975 40.3576 11.9176 40.1475 12.7578 40.1475C13.5981 40.1475 14.0182 40.5677 14.0182 41.4079C14.0182 42.2482 13.5981 42.6683 12.7578 42.6683C11.9176 42.6683 11.4975 42.2482 11.4975 41.4079Z" fill="#28A745"/>
</g>
<defs>
<clipPath id="clip0_1_12">
<rect width="65.2873" height="65.2873" fill="white" transform="matrix(1 0 0 -1 0.40625 65.7332)"/>
</clipPath>
</defs>
</svg>
